<svg id="svg" xmlns="http://www.w3.org/2000/svg" xmlns:xlink="http://www.w3.org/1999/xlink" width="400" height="400" viewBox="0, 0, 400,400"><g id="svgg"><path id="path0" d="M182.038 25.785 C 181.860 26.343,180.756 32.200,179.584 38.800 C 178.413 45.400,177.397 50.841,177.327 50.891 C 177.257 50.941,166.616 54.456,153.679 58.702 L 130.158 66.421 124.879 61.436 C 121.976 58.694,117.910 54.729,115.845 52.625 C 111.670 48.372,111.348 48.269,107.881 50.062 C 105.128 51.485,86.117 64.963,83.491 67.353 L 81.782 68.908 84.004 74.654 C 85.227 77.814,87.739 83.192,89.586 86.605 L 92.944 92.810 88.973 98.205 C 86.789 101.172,84.438 104.680,83.750 106.000 C 83.061 107.320,79.911 111.640,76.750 115.600 C 73.589 119.560,69.405 125.037,67.452 127.770 C 64.332 132.139,63.642 132.693,61.751 132.352 C 57.182 131.526,38.043 128.890,37.871 129.063 C 37.554 129.379,26.400 161.898,26.400 162.504 C 26.400 162.822,31.620 165.829,38.000 169.186 L 49.600 175.291 49.600 200.000 L 49.600 224.709 38.000 230.814 C 31.620 234.171,26.400 237.178,26.400 237.496 C 26.400 238.102,37.554 270.621,37.871 270.937 C 38.043 271.110,57.182 268.474,61.751 267.648 C 63.642 267.307,64.332 267.861,67.452 272.230 C 69.405 274.963,73.589 280.440,76.750 284.400 C 79.911 288.360,83.061 292.680,83.750 294.000 C 84.438 295.320,86.790 298.829,88.975 301.798 L 92.948 307.195 89.242 314.049 C 87.204 317.818,84.701 323.204,83.680 326.017 L 81.824 331.131 83.512 332.667 C 86.124 335.043,105.142 348.522,107.881 349.938 C 111.348 351.731,111.670 351.628,115.845 347.375 C 117.910 345.271,121.976 341.306,124.879 338.564 L 130.158 333.579 153.679 341.298 C 166.616 345.544,177.260 349.059,177.333 349.109 C 177.407 349.159,178.506 354.960,179.776 362.000 L 182.086 374.800 200.000 374.800 L 217.914 374.800 220.224 362.000 C 221.494 354.960,222.593 349.164,222.667 349.120 C 222.740 349.076,233.373 345.582,246.296 341.354 L 269.792 333.668 276.496 339.804 C 280.183 343.178,283.200 346.205,283.200 346.529 C 283.200 349.025,288.967 351.417,291.767 350.082 C 294.626 348.718,313.233 335.599,316.509 332.637 L 318.218 331.092 315.996 325.346 C 314.773 322.186,312.267 316.818,310.426 313.418 L 307.080 307.235 311.940 300.546 C 314.613 296.867,316.810 293.529,316.821 293.128 C 316.833 292.728,319.027 289.700,321.696 286.400 C 324.366 283.100,328.707 277.445,331.344 273.834 C 335.610 267.990,336.372 267.309,338.269 267.640 C 343.227 268.508,361.974 271.093,362.135 270.932 C 362.452 270.615,373.600 238.091,373.600 237.483 C 373.600 237.157,368.380 234.144,362.000 230.786 L 350.400 224.682 350.400 200.000 L 350.400 175.318 362.000 169.214 C 368.380 165.856,373.600 162.843,373.600 162.517 C 373.600 161.909,362.452 129.385,362.135 129.068 C 361.973 128.906,343.202 131.496,338.249 132.364 C 336.363 132.694,335.661 132.129,332.548 127.770 C 330.595 125.037,326.411 119.560,323.250 115.600 C 320.089 111.640,316.939 107.320,316.250 106.000 C 315.562 104.680,313.211 101.172,311.027 98.205 L 307.056 92.810 310.414 86.605 C 312.261 83.192,314.773 77.814,315.996 74.654 L 318.218 68.908 316.509 67.364 C 313.815 64.930,296.793 52.768,292.665 50.327 L 288.930 48.118 279.465 57.260 C 274.259 62.288,269.640 66.275,269.200 66.119 C 268.760 65.964,258.140 62.490,245.600 58.399 C 233.060 54.309,222.740 50.925,222.667 50.881 C 222.593 50.836,221.494 45.040,220.224 38.000 L 217.915 25.200 200.138 24.985 C 186.326 24.817,182.289 24.996,182.038 25.785 M222.000 70.759 C 295.386 83.821,343.442 154.163,328.329 226.400 C 311.044 309.023,222.087 354.114,145.600 319.023 C 142.300 317.510,138.520 315.817,137.200 315.263 C 125.540 310.365,100.335 287.530,90.959 273.369 C 62.042 229.698,62.042 170.340,90.959 126.623 C 96.646 118.024,117.098 97.302,125.229 91.898 C 153.494 73.115,190.196 65.098,222.000 70.759 M180.400 83.206 C 136.602 89.309,95.153 126.790,84.858 169.600 C 66.389 246.403,122.431 318.549,200.432 318.385 C 297.404 318.182,353.096 207.441,295.372 129.600 C 268.324 93.125,227.484 76.645,180.400 83.206 M206.962 103.368 C 208.193 103.901,212.440 106.372,216.400 108.859 C 220.360 111.346,226.128 114.630,229.218 116.157 C 232.307 117.684,238.373 121.063,242.696 123.667 C 247.020 126.270,255.705 131.460,261.998 135.200 C 274.755 142.783,276.108 143.827,279.104 148.400 L 281.200 151.600 281.200 200.000 L 281.200 248.400 279.104 251.600 C 276.108 256.173,274.755 257.217,261.998 264.800 C 255.705 268.540,247.020 273.730,242.696 276.333 C 238.373 278.937,232.307 282.312,229.218 283.834 C 226.128 285.356,221.161 288.175,218.181 290.097 C 203.100 299.824,197.853 300.192,185.600 292.381 C 176.970 286.879,172.409 284.238,170.486 283.627 C 169.482 283.309,164.282 280.413,158.930 277.192 C 153.579 273.971,144.160 268.379,138.000 264.765 C 125.560 257.467,123.944 256.222,120.904 251.600 L 118.800 248.400 118.800 200.000 L 118.800 151.600 120.904 148.400 C 123.944 143.778,125.560 142.533,138.000 135.235 C 144.160 131.621,153.579 126.029,158.930 122.808 C 164.282 119.587,169.482 116.691,170.486 116.373 C 172.549 115.718,178.771 112.114,183.694 108.722 C 192.545 102.624,200.835 100.717,206.962 103.368 M191.600 118.073 C 188.520 119.649,185.460 121.413,184.800 121.993 C 184.140 122.573,176.580 127.172,168.000 132.215 C 144.868 145.809,138.761 149.626,139.155 150.243 C 139.681 151.068,149.869 157.005,150.800 157.029 C 151.240 157.041,154.036 155.554,157.014 153.725 C 159.992 151.896,162.707 150.400,163.048 150.400 C 163.388 150.400,167.612 148.076,172.433 145.235 C 180.435 140.520,181.339 140.169,182.800 141.209 C 185.467 143.109,196.686 149.600,197.300 149.600 C 198.595 149.600,215.983 160.181,215.629 160.753 C 215.418 161.095,208.760 165.247,200.833 169.980 C 192.906 174.714,186.583 178.849,186.781 179.169 C 187.600 180.494,197.579 184.800,199.832 184.800 C 203.200 184.800,208.208 182.516,216.951 176.993 C 221.048 174.405,229.800 169.118,236.400 165.244 C 254.748 154.474,260.910 150.642,260.910 150.000 C 260.910 149.358,254.748 145.526,236.400 134.756 C 229.800 130.882,221.048 125.595,216.951 123.007 C 203.065 114.235,200.194 113.676,191.600 118.073 M171.720 159.729 L 163.039 165.005 168.477 168.159 C 174.789 171.821,174.115 171.950,184.525 165.095 L 191.346 160.603 186.441 157.501 C 180.434 153.704,182.032 153.462,171.720 159.729 M131.200 202.286 C 131.200 249.799,130.769 246.828,138.174 250.365 C 141.014 251.721,146.096 254.593,149.469 256.746 C 152.841 258.899,161.900 264.325,169.600 268.805 C 177.300 273.284,184.140 277.395,184.800 277.939 C 185.460 278.484,187.710 279.905,189.800 281.098 L 193.600 283.267 193.600 240.014 L 193.600 196.760 191.800 196.069 C 190.810 195.689,188.074 194.078,185.720 192.489 C 183.365 190.900,181.295 189.600,181.120 189.600 C 180.944 189.600,180.800 196.800,180.800 205.600 C 180.800 214.400,180.641 221.600,180.448 221.600 C 180.254 221.600,176.285 219.602,171.628 217.159 C 163.996 213.156,158.654 210.037,147.000 202.779 L 143.200 200.412 143.195 184.006 L 143.190 167.600 140.995 166.351 C 139.788 165.665,137.090 164.101,135.000 162.875 L 131.200 160.648 131.200 202.286 M259.477 166.278 C 254.569 169.205,247.017 173.730,242.694 176.333 C 238.372 178.937,232.307 182.312,229.218 183.834 C 226.128 185.356,221.170 188.169,218.201 190.084 C 215.231 191.999,211.361 194.301,209.601 195.200 L 206.400 196.833 206.400 240.092 L 206.400 283.352 210.200 281.150 C 212.290 279.939,215.440 277.983,217.200 276.804 C 218.960 275.625,226.160 271.316,233.200 267.229 C 240.240 263.141,248.063 258.435,250.584 256.770 C 253.105 255.105,257.853 252.398,261.135 250.754 C 269.379 246.625,268.854 250.028,268.610 202.278 L 268.400 160.957 259.477 166.278 M155.200 184.276 C 155.200 193.670,154.859 193.078,163.000 197.820 L 168.000 200.732 168.000 191.635 L 168.000 182.538 162.330 179.269 C 154.893 174.982,155.200 174.766,155.200 184.276 " stroke="none" fill="#000000" fill-rule="evenodd"></path></g></svg>