<svg id="svg" xmlns="http://www.w3.org/2000/svg" xmlns:xlink="http://www.w3.org/1999/xlink" width="400" height="400" viewBox="0, 0, 400,400"><g id="svgg"><path id="path0" d="M171.690 38.286 C 166.147 41.298,161.915 50.523,163.192 56.808 C 163.741 59.509,164.310 62.773,164.456 64.063 C 164.602 65.352,150.401 88.730,132.898 116.016 L 101.073 165.625 64.965 165.625 C 23.218 165.625,20.599 166.278,14.365 178.241 C 6.056 194.184,16.585 210.918,34.935 210.932 C 42.178 210.937,42.483 211.110,41.580 214.708 C 39.889 221.445,58.878 330.534,63.556 340.958 C 67.909 350.656,75.388 358.391,83.821 361.914 C 91.467 365.109,310.143 365.089,317.793 361.893 C 324.864 358.939,333.204 350.280,337.472 341.464 C 341.332 333.491,359.348 232.189,359.365 218.359 L 359.375 210.938 366.016 210.932 C 383.402 210.916,393.712 193.738,385.635 178.241 C 379.401 166.278,376.782 165.625,335.035 165.625 L 298.927 165.625 267.102 116.016 C 249.599 88.730,235.398 65.352,235.544 64.063 C 235.690 62.773,236.259 59.509,236.808 56.808 C 240.158 40.317,216.645 28.427,204.567 40.505 L 200.000 45.072 195.433 40.505 C 190.204 35.276,179.132 34.242,171.690 38.286 M202.657 66.110 C 204.655 69.384,211.356 73.436,214.801 73.453 C 217.238 73.464,224.708 84.000,247.203 119.156 L 276.437 164.844 238.219 165.262 C 217.198 165.492,182.802 165.492,161.781 165.262 L 123.563 164.844 152.797 119.156 C 175.292 84.000,182.762 73.464,185.199 73.453 C 188.644 73.436,195.345 69.384,197.343 66.110 C 198.030 64.984,199.226 64.063,200.000 64.063 C 200.774 64.063,201.970 64.984,202.657 66.110 M122.731 233.822 L 126.563 237.956 126.563 276.911 L 126.563 315.865 121.995 320.433 C 117.040 325.388,114.158 325.992,108.882 323.182 C 101.835 319.429,101.664 318.342,101.612 276.882 L 101.563 237.358 105.398 233.523 C 110.620 228.301,117.728 228.423,122.731 233.822 M177.205 234.495 L 181.250 239.302 181.227 276.292 C 181.202 316.477,180.666 319.457,172.788 323.234 C 168.933 325.083,167.617 325.038,163.150 322.908 C 155.246 319.139,154.398 313.955,154.971 272.909 L 155.469 237.224 159.853 233.456 C 166.003 228.169,172.194 228.540,177.205 234.495 M231.368 233.717 C 236.768 239.460,238.128 309.863,232.999 318.153 C 229.418 323.941,223.355 325.880,217.548 323.096 C 209.990 319.472,209.423 316.216,209.398 276.292 L 209.375 239.302 213.420 234.495 C 218.685 228.238,225.923 227.924,231.368 233.717 M285.102 233.398 C 291.326 239.622,293.371 309.529,287.584 318.248 C 282.526 325.870,274.941 326.744,268.630 320.433 L 264.063 315.865 264.063 278.168 C 264.063 233.010,264.828 230.155,277.024 229.811 C 279.663 229.736,282.861 231.156,285.102 233.398 " stroke="none" fill="#000000" fill-rule="evenodd"></path></g></svg>