<svg id="svg" xmlns="http://www.w3.org/2000/svg" xmlns:xlink="http://www.w3.org/1999/xlink" width="400" height="391.9629057187017" viewBox="0, 0, 400,391.9629057187017"><g id="svgg"><path id="path0" d="M240.558 1.792 C 239.212 3.138,239.274 2.879,236.796 17.505 C 234.619 30.364,234.493 30.670,231.056 31.507 C 229.617 31.857,226.325 32.724,223.742 33.433 C 216.252 35.488,216.621 35.689,207.190 24.420 C 197.562 12.916,196.865 12.387,193.622 14.113 C 187.985 17.113,172.778 26.072,171.761 26.993 C 170.033 28.556,170.307 29.899,174.961 42.658 C 180.386 57.530,180.514 55.990,173.250 63.226 C 166.052 70.398,167.647 70.263,153.193 64.915 C 136.715 58.817,138.976 57.963,129.937 73.705 C 121.691 88.065,121.252 86.007,134.985 97.372 C 145.563 106.127,145.887 106.645,144.150 112.023 C 143.458 114.166,142.583 117.488,142.205 119.405 C 141.225 124.376,140.990 124.492,126.739 127.032 C 109.749 130.061,111.307 128.403,111.170 143.600 C 111.031 158.986,111.072 159.566,112.386 160.852 C 113.112 161.562,117.537 162.609,126.430 164.175 C 140.138 166.589,141.259 167.028,141.889 170.234 C 142.099 171.304,142.984 174.769,143.857 177.934 C 145.866 185.224,146.406 184.304,134.003 194.738 C 121.977 204.855,122.221 204.314,126.433 211.541 C 129.802 217.324,129.923 217.372,142.504 217.901 C 167.205 218.939,183.140 223.235,207.813 235.507 C 221.430 242.280,223.225 242.731,249.768 246.060 C 303.547 252.804,312.137 255.214,324.042 266.899 L 328.146 270.926 332.388 268.587 C 341.731 263.436,341.614 264.075,336.013 248.724 C 330.720 234.219,330.641 235.094,337.891 227.844 C 344.322 221.413,344.576 221.312,349.436 223.252 C 372.797 232.572,372.528 232.568,377.467 223.684 C 379.415 220.179,382.361 215.046,384.013 212.279 C 388.840 204.194,389.297 205.035,372.333 190.802 C 364.985 184.638,365.079 184.842,366.848 178.890 C 367.642 176.219,368.639 172.568,369.064 170.775 C 369.493 168.963,370.303 167.267,370.888 166.954 C 371.768 166.482,395.416 161.978,397.009 161.978 C 399.627 161.978,400.000 159.952,400.000 145.713 C 400.000 128.275,401.615 130.238,384.798 127.244 C 370.686 124.732,369.088 124.116,369.088 121.186 C 369.088 120.588,368.265 117.239,367.260 113.745 C 365.008 105.922,364.392 107.078,376.029 97.301 C 389.079 86.337,388.817 86.943,383.999 78.911 C 382.339 76.144,379.542 71.311,377.783 68.172 C 372.582 58.886,373.511 59.037,357.782 64.915 C 343.184 70.370,344.655 70.500,337.397 63.118 C 330.245 55.843,330.447 57.837,335.476 44.197 C 341.903 26.768,342.275 28.435,330.421 21.556 C 312.535 11.177,314.993 11.085,305.463 22.493 C 295.396 34.545,295.316 34.622,292.920 34.620 C 289.370 34.617,279.250 31.597,277.728 30.086 C 276.370 28.738,273.730 17.405,272.342 6.967 C 272.105 5.188,271.361 3.032,270.687 2.175 L 269.462 0.618 255.597 0.618 C 242.803 0.618,241.640 0.709,240.558 1.792 M268.616 78.828 C 314.153 88.546,337.088 137.388,315.209 178.053 C 286.354 231.685,206.707 222.856,190.101 164.185 C 176.271 115.324,219.487 68.343,268.616 78.828 M11.437 220.006 C -0.476 220.769,0.618 214.052,0.618 286.442 L 0.618 346.649 2.032 348.749 C 4.350 352.193,6.226 352.493,24.140 352.277 C 41.765 352.064,42.516 351.895,44.256 347.731 C 45.616 344.474,45.558 227.051,44.194 224.178 C 42.280 220.144,31.237 218.738,11.437 220.006 M123.957 227.301 C 98.761 229.335,64.518 236.551,59.324 240.921 C 56.210 243.541,56.178 244.041,56.380 287.172 C 56.612 336.600,55.429 332.389,69.683 334.529 C 82.547 336.461,85.131 337.350,104.173 346.397 C 160.182 373.008,171.300 378.136,188.924 385.493 C 209.349 394.020,210.476 394.011,267.697 384.855 C 275.348 383.631,288.300 381.676,296.479 380.510 C 321.599 376.931,323.209 376.271,348.429 359.211 C 375.300 341.033,384.846 333.180,388.236 326.465 C 391.306 320.383,390.412 316.091,385.531 313.479 C 383.420 312.349,383.486 311.972,386.368 308.698 C 398.296 295.147,379.370 281.804,358.269 288.888 C 351.111 291.291,344.239 295.434,336.894 301.775 C 323.166 313.626,317.538 316.095,298.376 318.670 C 262.021 323.555,249.484 323.207,230.712 316.793 C 222.956 314.143,207.110 307.314,207.110 306.621 C 207.110 304.564,227.885 304.906,265.905 307.591 C 304.412 310.311,303.891 310.332,310.521 305.795 C 324.450 296.263,325.532 278.134,312.686 269.555 C 304.198 263.886,277.791 257.761,252.799 255.662 C 224.494 253.285,218.916 252.149,208.521 246.642 C 178.921 230.962,152.752 224.976,123.957 227.301 " stroke="none" fill="#000000" fill-rule="evenodd"></path></g></svg>